<?xml version="1.0" encoding="UTF-8"?>
<svg width="295.99" height="66.593" version="1.1" viewBox="0 0 78.313 17.619" xmlns="http://www.w3.org/2000/svg" xmlns:cc="http://creativecommons.org/ns#" xmlns:dc="http://purl.org/dc/elements/1.1/" xmlns:rdf="http://www.w3.org/1999/02/22-rdf-syntax-ns#">
 <metadata>
  <rdf:RDF>
   <cc:Work rdf:about="">
    <dc:format>image/svg+xml</dc:format>
    <dc:type rdf:resource="http://purl.org/dc/dcmitype/StillImage"/>
    <dc:title/>
   </cc:Work>
  </rdf:RDF>
 </metadata>
 <g transform="translate(-57.963 -65.886)">
  <g transform="matrix(.53841 0 0 .53841 254.79 107.43)" stroke-linecap="round" stroke-linejoin="round" stroke-width="1.244">
   <g fill="#394364" style="paint-order:stroke fill markers" aria-label="CORONAVÍRUS">
    <path d="m-320.15-62.139q-1.6001 0-2.7652-0.69908-1.1496-0.71461-1.7865-1.9729-0.63694-1.2739-0.63694-2.9516 0-1.6622 0.63694-2.9206 0.63693-1.2739 1.7865-1.9885 1.1651-0.71461 2.7652-0.71461 1.8642 0 3.0293 0.90103 1.1807 0.8855 1.5069 2.4856h-1.4448q-0.24856-1.0098-1.0253-1.6156-0.76122-0.6214-2.0662-0.6214-1.1651 0-2.0351 0.54372-0.86996 0.52819-1.3516 1.538-0.46605 0.99424-0.46605 2.3924t0.46605 2.4079q0.48159 0.99424 1.3516 1.538 0.86996 0.52819 2.0351 0.52819 1.3049 0 2.0662-0.59033 0.77675-0.60586 1.0253-1.6001h1.4448q-0.32623 1.569-1.5069 2.4545-1.1651 0.8855-3.0293 0.8855z"/>
    <path d="m-308.78-62.139q-1.6001 0-2.8118-0.69908-1.1962-0.71461-1.8797-1.9885-0.66801-1.2739-0.66801-2.9361t0.66801-2.9206q0.68354-1.2739 1.8797-1.9885 1.2117-0.71461 2.8118-0.71461 1.6156 0 2.8118 0.71461 1.2117 0.71461 1.8797 1.9885 0.668 1.2583 0.668 2.9206t-0.668 2.9361q-0.66801 1.2739-1.8797 1.9885-1.1962 0.69908-2.8118 0.69908zm0-1.1496q1.1962 0 2.0972-0.52819 0.91657-0.54372 1.4137-1.538 0.51265-1.0098 0.51265-2.4079t-0.51265-2.3924q-0.49712-0.99424-1.4137-1.5224-0.90103-0.54372-2.0972-0.54372-1.1962 0-2.1128 0.54372-0.90103 0.52819-1.4137 1.5224-0.49712 0.99424-0.49712 2.3924t0.49712 2.4079q0.51266 0.99424 1.4137 1.538 0.91656 0.52819 2.1128 0.52819z"/>
    <path d="m-301.56-62.325v-10.874h3.5109q1.2739 0 2.0817 0.41944t1.1962 1.1496q0.38837 0.73014 0.38837 1.6156 0 1.0253-0.55926 1.8487-0.54372 0.82336-1.7088 1.1651l2.3769 4.676h-1.538l-2.206-4.4896h-2.237v4.4896zm1.3049-5.5149h2.1128q1.2583 0 1.8331-0.60586 0.5748-0.60586 0.5748-1.5535 0-0.96317-0.5748-1.5224-0.55926-0.5748-1.8487-0.5748h-2.0972z"/>
    <path d="m-287.39-62.139q-1.6001 0-2.8118-0.69908-1.1962-0.71461-1.8797-1.9885-0.66801-1.2739-0.66801-2.9361t0.66801-2.9206q0.68354-1.2739 1.8797-1.9885 1.2117-0.71461 2.8118-0.71461 1.6156 0 2.8118 0.71461 1.2117 0.71461 1.8797 1.9885 0.668 1.2583 0.668 2.9206t-0.668 2.9361q-0.66801 1.2739-1.8797 1.9885-1.1962 0.69908-2.8118 0.69908zm0-1.1496q1.1962 0 2.0972-0.52819 0.91657-0.54372 1.4137-1.538 0.51265-1.0098 0.51265-2.4079t-0.51265-2.3924q-0.49712-0.99424-1.4137-1.5224-0.90103-0.54372-2.0972-0.54372-1.1962 0-2.1128 0.54372-0.90103 0.52819-1.4137 1.5224-0.49712 0.99424-0.49712 2.3924t0.49712 2.4079q0.51266 0.99424 1.4137 1.538 0.91656 0.52819 2.1128 0.52819z"/>
    <path d="m-280.16-62.325v-10.874h1.3049l5.7946 8.7151v-8.7151h1.3049v10.874h-1.3049l-5.7946-8.7151v8.7151z"/>
    <path d="m-270.14-62.325 4.008-10.874h1.3826l3.9925 10.874h-1.3826l-0.99424-2.7963h-4.6294l-1.0098 2.7963zm2.7652-3.8527h3.8527l-1.9263-5.3751z"/>
    <path d="m-257.38-62.325-4.0857-10.874h1.4137l3.4332 9.4919 3.4643-9.4919h1.3826l-4.0857 10.874z"/>
    <path d="m-250.28-62.325v-10.874h1.3049v10.874zm-0.0466-11.511v-0.9787l3.2624-1.9729v1.1341z"/>
    <path d="m-246.67-62.325v-10.874h3.5109q1.2739 0 2.0817 0.41944t1.1962 1.1496q0.38837 0.73014 0.38837 1.6156 0 1.0253-0.55926 1.8487-0.54372 0.82336-1.7088 1.1651l2.3769 4.676h-1.538l-2.206-4.4896h-2.237v4.4896zm1.3049-5.5149h2.1128q1.2583 0 1.8331-0.60586 0.5748-0.60586 0.5748-1.5535 0-0.96317-0.5748-1.5224-0.55926-0.5748-1.8487-0.5748h-2.0972z"/>
    <path d="m-233.51-62.139q-1.1185 0-2.0351-0.43498-0.90103-0.45052-1.4448-1.3826-0.54372-0.9321-0.54372-2.3769v-6.8665h1.3049v6.882q0 1.5846 0.76121 2.2992 0.76122 0.71461 1.9885 0.71461 1.2273 0 1.973-0.71461t0.74568-2.2992v-6.882h1.3049v6.8665q0 1.4448-0.54373 2.3769-0.54372 0.9321-1.4603 1.3826-0.91656 0.43498-2.0506 0.43498z"/>
    <path d="m-223.78-62.139q-1.1962 0-2.0817-0.43498-0.88549-0.43498-1.3671-1.2117-0.48158-0.77675-0.48158-1.8021h1.3671q0 0.63694 0.29516 1.1807 0.29517 0.52819 0.85443 0.85442 0.57479 0.3107 1.4137 0.3107 1.103 0 1.7088-0.52819 0.60587-0.52819 0.60587-1.3205 0-0.65247-0.27963-1.0408-0.27963-0.40391-0.76122-0.65247-0.46605-0.24856-1.0874-0.43498-0.60586-0.18642-1.2739-0.41944-1.2583-0.43498-1.8642-1.0719-0.60586-0.65247-0.60586-1.6933-0.0155-0.86996 0.40391-1.538 0.41944-0.68354 1.1807-1.0564 0.77675-0.38838 1.8331-0.38838 1.0408 0 1.8021 0.38838 0.77675 0.38838 1.1962 1.0719 0.43498 0.68354 0.45052 1.5535h-1.3671q0-0.45052-0.23303-0.8855-0.23302-0.45052-0.71461-0.73014-0.46605-0.27963-1.1807-0.27963-0.88549-0.01553-1.4603 0.45052-0.55926 0.46605-0.55926 1.2894 0 0.69908 0.38838 1.0719 0.40391 0.37284 1.1185 0.6214 0.71461 0.23302 1.6467 0.54372 0.77675 0.27963 1.3982 0.65247t0.96317 0.96317q0.3573 0.59033 0.3573 1.5069 0 0.77675-0.40391 1.4758-0.40391 0.68354-1.2273 1.1185-0.80782 0.43498-2.0351 0.43498z"/>
   </g>
   <g fill="#305ff0" style="paint-order:stroke fill markers" aria-label="IRARÁ">
    <path d="m-325.37-46.34v-10.874h1.9885v10.874z"/>
    <path d="m-321.27-46.34v-10.874h3.9925q1.3049 0 2.1438 0.45052 0.85443 0.43498 1.2739 1.1962 0.41945 0.74568 0.41945 1.6622 0 0.99424-0.52819 1.8176-0.51266 0.82336-1.6156 1.1962l2.2526 4.5518h-2.2836l-2.0196-4.2877h-1.6467v4.2877zm1.9885-5.748h1.8797q0.99424 0 1.4603-0.48158t0.46605-1.2739q0-0.77675-0.46605-1.2428-0.45051-0.46605-1.4758-0.46605h-1.8642z"/>
    <path d="m-312.29-46.34 3.977-10.874h2.237l3.977 10.874h-2.1128l-0.86996-2.5167h-4.2411l-0.88549 2.5167zm3.5109-4.0702h3.1536l-1.5846-4.5207z"/>
    <path d="m-300.7-46.34v-10.874h3.9925q1.3049 0 2.1438 0.45052 0.85443 0.43498 1.2739 1.1962 0.41945 0.74568 0.41945 1.6622 0 0.99424-0.52819 1.8176-0.51266 0.82336-1.6156 1.1962l2.2526 4.5518h-2.2836l-2.0196-4.2877h-1.6467v4.2877zm1.9885-5.748h1.8797q0.99424 0 1.4603-0.48158t0.46605-1.2739q0-0.77675-0.46605-1.2428-0.45051-0.46605-1.4758-0.46605h-1.8642z"/>
    <path d="m-291.72-46.34 3.977-10.874h2.237l3.977 10.874h-2.1128l-0.86996-2.5167h-4.2411l-0.88549 2.5167zm3.5109-4.0702h3.1536l-1.5846-4.5207zm0.80782-7.4257v-1.3982l3.5109-1.8953v1.6156z"/>
   </g>
  </g>
  <g transform="matrix(.53841 0 0 .53841 254.79 108.07)">
   <g shape-rendering="auto">
    <g fill="#394364">
     <path d="m-359.34-74.073a15.769 15.769 0 0 0-0.0779 0.06644 15.769 15.769 0 0 0-0.11318 0.09656 15.769 15.769 0 0 0-0.11111 0.09761 15.769 15.769 0 0 0-0.11109 0.09863 15.769 15.769 0 0 0-0.11007 0.09968 15.769 15.769 0 0 0-0.10902 0.10072 15.769 15.769 0 0 0-0.10797 0.10279 15.769 15.769 0 0 0-0.10695 0.10175 15.769 15.769 0 0 0-0.0322 0.03219l7.3999 8.3291a4.6696 4.6696 0 0 1 0.86074-0.81609zm20.277 0-7.3833 8.3094a4.6696 4.6696 0 0 1 0.86178 0.81609l7.3999-8.3291a15.769 15.769 0 0 0-0.0177-0.01869 15.769 15.769 0 0 0-0.10695-0.10279 15.769 15.769 0 0 0-0.10797-0.10175 15.769 15.769 0 0 0-0.10902-0.10072 15.769 15.769 0 0 0-0.10902-0.10072 15.769 15.769 0 0 0-0.11109-0.09863 15.769 15.769 0 0 0-0.11214-0.09759 15.769 15.769 0 0 0-0.11213-0.09761 15.769 15.769 0 0 0-0.0924-0.07788z" color="#000000" color-rendering="auto" dominant-baseline="auto" image-rendering="auto" solid-color="#000000" stop-color="#000000" style="font-feature-settings:normal;font-variant-alternates:normal;font-variant-caps:normal;font-variant-east-asian:normal;font-variant-ligatures:normal;font-variant-numeric:normal;font-variant-position:normal;font-variation-settings:normal;inline-size:0;isolation:auto;mix-blend-mode:normal;paint-order:stroke fill markers;shape-margin:0;shape-padding:0;text-decoration-color:#000000;text-decoration-line:none;text-decoration-style:solid;text-indent:0;text-orientation:mixed;text-transform:none;white-space:normal"/>
     <path d="m-349.21-78.357c-9.0296 0-16.361 7.3336-16.361 16.363s7.3317 16.361 16.361 16.361c8.9949 0 16.297-7.278 16.354-16.26a0.59282 0.59282 0 0 0 0.00782-0.076172 0.59282 0.59282 0 0 0 0.00195-0.025391 0.59282 0.59282 0 0 0-0.00977-0.097656c-0.05404-8.9836-7.3573-16.266-16.354-16.266zm0 1.1855c8.3889-1e-6 15.176 6.7889 15.176 15.178 0 8.3889-6.7869 15.176-15.176 15.176s-15.176-6.7869-15.176-15.176c0-8.3889 6.7869-15.178 15.176-15.178z" color="#000000" color-rendering="auto" dominant-baseline="auto" image-rendering="auto" solid-color="#000000" stop-color="#000000" style="font-feature-settings:normal;font-variant-alternates:normal;font-variant-caps:normal;font-variant-east-asian:normal;font-variant-ligatures:normal;font-variant-numeric:normal;font-variant-position:normal;font-variation-settings:normal;inline-size:0;isolation:auto;mix-blend-mode:normal;paint-order:stroke fill markers;shape-margin:0;shape-padding:0;text-decoration-color:#000000;text-decoration-line:none;text-decoration-style:solid;text-indent:0;text-orientation:mixed;text-transform:none;white-space:normal"/>
     <path d="m-341.89-70.359a0.59274 0.59274 0 0 0-0.42578 0.18555 0.59274 0.59274 0 0 0 0.02344 0.83789c3.0054 2.8327 3.9804 7.2077 2.4629 11.049-1.5176 3.8411-5.2177 6.3672-9.3477 6.3809-4.13 0.013656-7.8477-2.4893-9.3906-6.3203-1.5429-3.831-0.596-8.21 2.3906-11.062a0.59274 0.59274 0 0 0 0.01953-0.83789 0.59274 0.59274 0 0 0-0.83789-0.019531c-3.3349 3.1851-4.3947 8.0856-2.6719 12.363 1.7228 4.2777 5.8826 7.0758 10.494 7.0605s8.7528-2.84 10.447-7.1289c1.6945-4.289 0.6039-9.1827-2.752-12.346a0.59274 0.59274 0 0 0-0.41211-0.16211z" color="#000000" color-rendering="auto" dominant-baseline="auto" image-rendering="auto" solid-color="#000000" stop-color="#000000" style="font-feature-settings:normal;font-variant-alternates:normal;font-variant-caps:normal;font-variant-east-asian:normal;font-variant-ligatures:normal;font-variant-numeric:normal;font-variant-position:normal;font-variation-settings:normal;inline-size:0;isolation:auto;mix-blend-mode:normal;paint-order:stroke fill markers;shape-margin:0;shape-padding:0;text-decoration-color:#000000;text-decoration-line:none;text-decoration-style:solid;text-indent:0;text-orientation:mixed;text-transform:none;white-space:normal"/>
    </g>
    <path d="m-349.21-67.256c-2.8993-2e-6 -5.2617 2.3624-5.2617 5.2617s2.3624 5.2617 5.2617 5.2617c2.8183 1e-6 5.0878-2.2455 5.2148-5.0332a0.59274 0.59274 0 0 0 0.04688-0.22852 0.59274 0.59274 0 0 0-0.04688-0.23242c-0.12902-2.7859-2.3979-5.0293-5.2148-5.0293zm0 1.1855c2.2586-1e-6 4.0762 1.8175 4.0762 4.0762s-1.8176 4.0762-4.0762 4.0762c-2.2586 1e-6 -4.0762-1.8175-4.0762-4.0762s1.8175-4.0762 4.0762-4.0762z" color="#000000" color-rendering="auto" dominant-baseline="auto" fill="#305ff0" image-rendering="auto" solid-color="#000000" stop-color="#000000" style="font-feature-settings:normal;font-variant-alternates:normal;font-variant-caps:normal;font-variant-east-asian:normal;font-variant-ligatures:normal;font-variant-numeric:normal;font-variant-position:normal;font-variation-settings:normal;inline-size:0;isolation:auto;mix-blend-mode:normal;paint-order:markers fill stroke;shape-margin:0;shape-padding:0;text-decoration-color:#000000;text-decoration-line:none;text-decoration-style:solid;text-indent:0;text-orientation:mixed;text-transform:none;white-space:normal"/>
   </g>
   <g fill="#305ff0">
    <path d="m-346.59-62.195a0.52211 0.52211 0 0 1-0.4815 0.54409 0.52211 0.52211 0 0 1-0.55911-0.46396 0.52211 0.52211 0 0 1 0.44596-0.57358 0.52211 0.52211 0 0 1 0.58746 0.42751z" style="paint-order:markers fill stroke"/>
    <path d="m-349.68-63.426a0.96713 0.96713 0 0 1-0.8919 1.0078 0.96713 0.96713 0 0 1-1.0357-0.85943 0.96713 0.96713 0 0 1 0.82608-1.0625 0.96713 0.96713 0 0 1 1.0882 0.7919z" style="paint-order:markers fill stroke"/>
    <path d="m-348.75-60.064a0.63734 0.63734 0 0 1-0.58777 0.66417 0.63734 0.63734 0 0 1-0.68252-0.56636 0.63734 0.63734 0 0 1 0.54439-0.70017 0.63734 0.63734 0 0 1 0.71712 0.52187z" style="paint-order:markers fill stroke"/>
    <path transform="rotate(225)" d="m291.79-210.06a1.1325 1.1325 0 0 1-1.0444 1.1802 1.1325 1.1325 0 0 1-1.2128-1.0064 1.1325 1.1325 0 0 1 0.96734-1.2442 1.1325 1.1325 0 0 1 1.2743 0.92732z" style="paint-order:markers fill stroke"/>
    <path d="m-352.62-58.848-2.1367 2.1367 0.39258 0.39258 2.1367-2.1348-0.39258-0.39453z" color="#000000" color-rendering="auto" dominant-baseline="auto" image-rendering="auto" shape-rendering="auto" solid-color="#000000" stop-color="#000000" style="font-feature-settings:normal;font-variant-alternates:normal;font-variant-caps:normal;font-variant-east-asian:normal;font-variant-ligatures:normal;font-variant-numeric:normal;font-variant-position:normal;font-variation-settings:normal;inline-size:0;isolation:auto;mix-blend-mode:normal;shape-margin:0;shape-padding:0;text-decoration-color:#000000;text-decoration-line:none;text-decoration-style:solid;text-indent:0;text-orientation:mixed;text-transform:none;white-space:normal"/>
    <path transform="matrix(.14959 -.98875 -.98875 -.14959 0 0)" d="m10.309 347.17a1.1325 1.1325 0 0 1-1.0444 1.1802 1.1325 1.1325 0 0 1-1.2128-1.0064 1.1325 1.1325 0 0 1 0.96734-1.2442 1.1325 1.1325 0 0 1 1.2743 0.92732z" style="paint-order:markers fill stroke"/>
    <path d="m-344.15-61.648-0.08398 0.55078 2.9863 0.45117 0.08398-0.54883-2.9863-0.45313z" color="#000000" color-rendering="auto" dominant-baseline="auto" image-rendering="auto" shape-rendering="auto" solid-color="#000000" stop-color="#000000" style="font-feature-settings:normal;font-variant-alternates:normal;font-variant-caps:normal;font-variant-east-asian:normal;font-variant-ligatures:normal;font-variant-numeric:normal;font-variant-position:normal;font-variation-settings:normal;inline-size:0;isolation:auto;mix-blend-mode:normal;shape-margin:0;shape-padding:0;text-decoration-color:#000000;text-decoration-line:none;text-decoration-style:solid;text-indent:0;text-orientation:mixed;text-transform:none;white-space:normal"/>
    <path transform="matrix(.84494 -.53487 -.53487 -.84494 0 0)" d="m-260.76 231.79a1.1325 1.1325 0 0 1-1.0444 1.1802 1.1325 1.1325 0 0 1-1.2128-1.0064 1.1325 1.1325 0 0 1 0.96734-1.2442 1.1325 1.1325 0 0 1 1.2743 0.92732z" style="paint-order:markers fill stroke"/>
    <path d="m-346.25-57.902-0.4707 0.29688 1.6172 2.5527 0.46875-0.29688-1.6152-2.5527z" color="#000000" color-rendering="auto" dominant-baseline="auto" image-rendering="auto" shape-rendering="auto" solid-color="#000000" stop-color="#000000" style="font-feature-settings:normal;font-variant-alternates:normal;font-variant-caps:normal;font-variant-east-asian:normal;font-variant-ligatures:normal;font-variant-numeric:normal;font-variant-position:normal;font-variation-settings:normal;inline-size:0;isolation:auto;mix-blend-mode:normal;shape-margin:0;shape-padding:0;text-decoration-color:#000000;text-decoration-line:none;text-decoration-style:solid;text-indent:0;text-orientation:mixed;text-transform:none;white-space:normal"/>
    <path transform="matrix(-.95458 .29796 .29796 .95458 0 0)" d="m315.96-170.55a1.1325 1.1325 0 0 1-1.0444 1.1802 1.1325 1.1325 0 0 1-1.2128-1.0064 1.1325 1.1325 0 0 1 0.96734-1.2442 1.1325 1.1325 0 0 1 1.2743 0.92732z" style="paint-order:markers fill stroke"/>
    <path d="m-351.3-69.734-0.52929 0.16602 0.89844 2.8828 0.53125-0.16602-0.9004-2.8828z" color="#000000" color-rendering="auto" dominant-baseline="auto" image-rendering="auto" shape-rendering="auto" solid-color="#000000" stop-color="#000000" style="font-feature-settings:normal;font-variant-alternates:normal;font-variant-caps:normal;font-variant-east-asian:normal;font-variant-ligatures:normal;font-variant-numeric:normal;font-variant-position:normal;font-variation-settings:normal;inline-size:0;isolation:auto;mix-blend-mode:normal;shape-margin:0;shape-padding:0;text-decoration-color:#000000;text-decoration-line:none;text-decoration-style:solid;text-indent:0;text-orientation:mixed;text-transform:none;white-space:normal"/>
    <path transform="matrix(-.13197 .99125 .99125 .13197 0 0)" d="m-14.106-361.78a1.1325 1.1325 0 0 1-1.0444 1.1802 1.1325 1.1325 0 0 1-1.2128-1.0064 1.1325 1.1325 0 0 1 0.96734-1.2442 1.1325 1.1325 0 0 1 1.2743 0.92732z" style="paint-order:markers fill stroke"/>
    <path d="m-357.26-63.199-0.07226 0.55078 2.9941 0.39844 0.07226-0.55078-2.9941-0.39844z" color="#000000" color-rendering="auto" dominant-baseline="auto" image-rendering="auto" shape-rendering="auto" solid-color="#000000" stop-color="#000000" style="font-feature-settings:normal;font-variant-alternates:normal;font-variant-caps:normal;font-variant-east-asian:normal;font-variant-ligatures:normal;font-variant-numeric:normal;font-variant-position:normal;font-variation-settings:normal;inline-size:0;isolation:auto;mix-blend-mode:normal;shape-margin:0;shape-padding:0;text-decoration-color:#000000;text-decoration-line:none;text-decoration-style:solid;text-indent:0;text-orientation:mixed;text-transform:none;white-space:normal"/>
   </g>
  </g>
 </g>
</svg>
