<?xml version="1.0" encoding="UTF-8"?>
<svg width="194.87" height="66.97" version="1.1" viewBox="0 0 51.559 17.719" xmlns="http://www.w3.org/2000/svg" xmlns:cc="http://creativecommons.org/ns#" xmlns:dc="http://purl.org/dc/elements/1.1/" xmlns:rdf="http://www.w3.org/1999/02/22-rdf-syntax-ns#">
 <metadata>
  <rdf:RDF>
   <cc:Work rdf:about="">
    <dc:format>image/svg+xml</dc:format>
    <dc:type rdf:resource="http://purl.org/dc/dcmitype/StillImage"/>
    <dc:title/>
   </cc:Work>
  </rdf:RDF>
 </metadata>
 <g transform="translate(-57.467 -65.845)">
  <g transform="matrix(.63566 0 0 .63566 264.29 112.9)" stroke-linecap="round" stroke-linejoin="round" stroke-width="1.244">
   <g fill="#394364" style="paint-order:stroke fill markers" aria-label="COVID19">
    <path d="m-320.15-62.139q-1.6001 0-2.7652-0.69908-1.1496-0.71461-1.7865-1.9729-0.63694-1.2739-0.63694-2.9516 0-1.6622 0.63694-2.9206 0.63693-1.2739 1.7865-1.9885 1.1651-0.71461 2.7652-0.71461 1.8642 0 3.0293 0.90103 1.1807 0.8855 1.5069 2.4856h-1.4448q-0.24856-1.0098-1.0253-1.6156-0.76122-0.6214-2.0662-0.6214-1.1651 0-2.0351 0.54372-0.86996 0.52819-1.3516 1.538-0.46605 0.99424-0.46605 2.3924t0.46605 2.4079q0.48159 0.99424 1.3516 1.538 0.86996 0.52819 2.0351 0.52819 1.3049 0 2.0662-0.59033 0.77675-0.60586 1.0253-1.6001h1.4448q-0.32623 1.569-1.5069 2.4545-1.1651 0.8855-3.0293 0.8855z"/>
    <path d="m-308.78-62.139q-1.6001 0-2.8118-0.69908-1.1962-0.71461-1.8797-1.9885-0.66801-1.2739-0.66801-2.9361t0.66801-2.9206q0.68354-1.2739 1.8797-1.9885 1.2117-0.71461 2.8118-0.71461 1.6156 0 2.8118 0.71461 1.2117 0.71461 1.8797 1.9885 0.668 1.2583 0.668 2.9206t-0.668 2.9361q-0.66801 1.2739-1.8797 1.9885-1.1962 0.69908-2.8118 0.69908zm0-1.1496q1.1962 0 2.0972-0.52819 0.91657-0.54372 1.4137-1.538 0.51265-1.0098 0.51265-2.4079t-0.51265-2.3924q-0.49712-0.99424-1.4137-1.5224-0.90103-0.54372-2.0972-0.54372-1.1962 0-2.1128 0.54372-0.90103 0.52819-1.4137 1.5224-0.49712 0.99424-0.49712 2.3924t0.49712 2.4079q0.51266 0.99424 1.4137 1.538 0.91656 0.52819 2.1128 0.52819z"/>
    <path d="m-298.7-62.325-4.0857-10.874h1.4137l3.4332 9.4919 3.4643-9.4919h1.3826l-4.0857 10.874z"/>
    <path d="m-291.6-62.325v-10.874h1.3049v10.874z"/>
    <path d="m-287.99-62.325v-10.874h3.34q2.874 0 4.2255 1.4603 1.3671 1.4603 1.3671 4.008 0 2.5011-1.3671 3.9614-1.3516 1.4448-4.2255 1.4448zm1.3049-1.0874h2.004q1.5846 0 2.5167-0.51266 0.94763-0.52819 1.3515-1.4914 0.40391-0.9787 0.40391-2.3147 0-1.3671-0.40391-2.3458t-1.3515-1.5069q-0.9321-0.52819-2.5167-0.52819h-2.004z"/>
    <path d="m-276.12-62.325v-9.4142l-1.7555 0.38838v-0.90103l2.1904-0.94764h0.88549v10.874z"/>
    <path d="m-268.91-73.386q1.1807 0 1.9885 0.45052 0.80782 0.43498 1.2894 1.1807 0.49712 0.74568 0.71461 1.6778 0.23302 0.91656 0.23302 1.8797 0 1.8021-0.49712 3.1691-0.49712 1.3515-1.4448 2.1283-0.9321 0.76122-2.2681 0.76122-1.0253 0-1.7555-0.40391-0.73014-0.40391-1.1651-1.0719-0.41945-0.68354-0.52819-1.5069h1.2117q0.17088 0.8855 0.76121 1.3671t1.4914 0.48158q1.2273 0 2.0506-1.1496 0.83889-1.1651 0.90103-3.6197-0.37284 0.73014-1.1962 1.2739-0.80782 0.52819-1.9574 0.52819-0.9321 0-1.7555-0.43498-0.80782-0.43498-1.3205-1.2117-0.51266-0.79228-0.51266-1.8487 0-0.91656 0.45052-1.7555 0.45051-0.83889 1.2894-1.3671 0.85443-0.52819 2.0196-0.52819zm0.0932 1.1496q-0.73014 0-1.3049 0.3107-0.57479 0.3107-0.90103 0.86996-0.32623 0.54372-0.32623 1.2583 0 1.103 0.71461 1.771 0.73014 0.65247 1.8176 0.65247 0.73015 0 1.3049-0.32624 0.5748-0.34177 0.90103-0.90103 0.34177-0.55926 0.34177-1.2117 0-0.69908-0.34177-1.2428-0.32623-0.55926-0.90103-0.86996-0.57479-0.3107-1.3049-0.3107z"/>
   </g>
   <g fill="#305ff0" style="paint-order:stroke fill markers" aria-label="MUNICIPAL">
    <path d="m-325.37-46.34v-10.874h2.3613l3.4643 6.8975 3.4177-6.8975h2.3613v10.874h-1.9885v-7.5034l-3.0293 5.9499h-1.569l-3.0293-5.9499v7.5034z"/>
    <path d="m-307.46-46.154q-1.1962 0-2.1594-0.46605-0.96317-0.48158-1.538-1.4448-0.55926-0.96317-0.55926-2.439v-6.7111h1.9885v6.7267q0 1.2739 0.60586 1.8953 0.6214 0.6214 1.7088 0.6214 1.0719 0 1.6933-0.6214t0.6214-1.8953v-6.7267h1.9885v6.7111q0 1.4758-0.59033 2.439t-1.5846 1.4448q-0.97871 0.46605-2.1749 0.46605z"/>
    <path d="m-301.07-46.34v-10.874h1.9885l5.111 7.6588v-7.6588h1.9885v10.874h-1.9885l-5.111-7.6432v7.6432z"/>
    <path d="m-289.87-46.34v-10.874h1.9885v10.874z"/>
    <path d="m-280.85-46.154q-1.6467 0-2.8274-0.69908-1.1807-0.71461-1.8176-1.9729-0.63693-1.2739-0.63693-2.9361t0.63693-2.9361q0.63694-1.2739 1.8176-1.9885t2.8274-0.71461q1.9574 0 3.2002 0.9787 1.2583 0.96317 1.569 2.7186h-2.1904q-0.20196-0.8855-0.86996-1.3826-0.65247-0.51266-1.7399-0.51266-1.5069 0-2.3613 1.0253-0.85443 1.0253-0.85443 2.8118t0.85443 2.8118q0.85442 1.0098 2.3613 1.0098 1.0874 0 1.7399-0.46605 0.668-0.48158 0.86996-1.3205h2.1904q-0.3107 1.6778-1.569 2.6254-1.2428 0.94764-3.2002 0.94764z"/>
    <path d="m-274.33-46.34v-10.874h1.9885v10.874z"/>
    <path d="m-270.24-46.34v-10.874h4.0236q1.3049 0 2.1594 0.43498 0.85442 0.43498 1.2739 1.1962 0.41944 0.76122 0.41944 1.7088 0 0.90103-0.40391 1.6622-0.40391 0.74568-1.2583 1.2117-0.85443 0.45052-2.1904 0.45052h-2.0351v4.21zm1.9885-5.8256h1.9108q1.0408 0 1.4914-0.45052 0.46605-0.46605 0.46605-1.2583 0-0.80782-0.46605-1.2583-0.45051-0.46605-1.4914-0.46605h-1.9108z"/>
    <path d="m-262.65-46.34 3.977-10.874h2.237l3.977 10.874h-2.1128l-0.86996-2.5167h-4.2411l-0.88549 2.5167zm3.5109-4.0702h3.1536l-1.5846-4.5207z"/>
    <path d="m-251.06-46.34v-10.874h1.9885v9.321h4.8158v1.5535z"/>
   </g>
  </g>
  <g transform="matrix(.25533 0 0 .25533 193.8 85.853)">
   <path d="m-359.34-74.073a15.769 15.769 0 0 0-0.0779 0.06644 15.769 15.769 0 0 0-0.11318 0.09656 15.769 15.769 0 0 0-0.11111 0.09761 15.769 15.769 0 0 0-0.11109 0.09863 15.769 15.769 0 0 0-0.11007 0.09968 15.769 15.769 0 0 0-0.10902 0.10072 15.769 15.769 0 0 0-0.10797 0.10279 15.769 15.769 0 0 0-0.10695 0.10175 15.769 15.769 0 0 0-0.0322 0.03219l7.3999 8.3291a4.6696 4.6696 0 0 1 0.86074-0.81609zm20.277 0-7.3833 8.3094a4.6696 4.6696 0 0 1 0.86178 0.81609l7.3999-8.3291a15.769 15.769 0 0 0-0.0177-0.01869 15.769 15.769 0 0 0-0.10695-0.10279 15.769 15.769 0 0 0-0.10797-0.10175 15.769 15.769 0 0 0-0.10902-0.10072 15.769 15.769 0 0 0-0.10902-0.10072 15.769 15.769 0 0 0-0.11109-0.09863 15.769 15.769 0 0 0-0.11214-0.09759 15.769 15.769 0 0 0-0.11213-0.09761 15.769 15.769 0 0 0-0.0924-0.07788z" color="#000000" color-rendering="auto" dominant-baseline="auto" fill="#394364" image-rendering="auto" shape-rendering="auto" solid-color="#000000" stop-color="#000000" style="font-feature-settings:normal;font-variant-alternates:normal;font-variant-caps:normal;font-variant-east-asian:normal;font-variant-ligatures:normal;font-variant-numeric:normal;font-variant-position:normal;font-variation-settings:normal;inline-size:0;isolation:auto;mix-blend-mode:normal;paint-order:stroke fill markers;shape-margin:0;shape-padding:0;text-decoration-color:#000000;text-decoration-line:none;text-decoration-style:solid;text-indent:0;text-orientation:mixed;text-transform:none;white-space:normal"/>
   <g fill="none" stroke-linecap="round" stroke-linejoin="round">
    <path d="m-333.44-61.994a15.769 15.769 0 0 1-15.769 15.769 15.769 15.769 0 0 1-15.769-15.769 15.769 15.769 0 0 1 15.769-15.769 15.769 15.769 0 0 1 15.769 15.769" stroke="#394364" stroke-width="1.1856" style="paint-order:stroke fill markers"/>
    <path d="m-341.88-69.766a10.68 10.68 0 0 1 2.6076 11.696 10.68 10.68 0 0 1-9.8976 6.7557 10.68 10.68 0 0 1-9.9421-6.6901 10.68 10.68 0 0 1 2.5302-11.713" stroke="#394364" stroke-width="1.1855" style="paint-order:stroke fill markers"/>
    <path d="m-344.54-61.994a4.6696 4.6696 0 0 1-4.6696 4.6696 4.6696 4.6696 0 0 1-4.6696-4.6696 4.6696 4.6696 0 0 1 4.6696-4.6696 4.6696 4.6696 0 0 1 4.6696 4.6696" stroke="#305ff0" stroke-width="1.1855" style="paint-order:markers fill stroke"/>
   </g>
   <g fill="#305ff0">
    <path d="m-346.59-62.195a0.52211 0.52211 0 0 1-0.4815 0.54409 0.52211 0.52211 0 0 1-0.55911-0.46396 0.52211 0.52211 0 0 1 0.44596-0.57358 0.52211 0.52211 0 0 1 0.58746 0.42751z" style="paint-order:markers fill stroke"/>
    <path d="m-349.68-63.426a0.96713 0.96713 0 0 1-0.8919 1.0078 0.96713 0.96713 0 0 1-1.0357-0.85943 0.96713 0.96713 0 0 1 0.82608-1.0625 0.96713 0.96713 0 0 1 1.0882 0.7919z" style="paint-order:markers fill stroke"/>
    <path d="m-348.75-60.064a0.63734 0.63734 0 0 1-0.58777 0.66417 0.63734 0.63734 0 0 1-0.68252-0.56636 0.63734 0.63734 0 0 1 0.54439-0.70017 0.63734 0.63734 0 0 1 0.71712 0.52187z" style="paint-order:markers fill stroke"/>
    <path transform="rotate(225)" d="m291.79-210.06a1.1325 1.1325 0 0 1-1.0444 1.1802 1.1325 1.1325 0 0 1-1.2128-1.0064 1.1325 1.1325 0 0 1 0.96734-1.2442 1.1325 1.1325 0 0 1 1.2743 0.92732z" style="paint-order:markers fill stroke"/>
   </g>
   <path d="m-354.56-56.515 2.1355-2.1355" fill="none" stroke="#305ff0" stroke-width=".55558"/>
   <path transform="matrix(.14959 -.98875 -.98875 -.14959 0 0)" d="m10.309 347.17a1.1325 1.1325 0 0 1-1.0444 1.1802 1.1325 1.1325 0 0 1-1.2128-1.0064 1.1325 1.1325 0 0 1 0.96734-1.2442 1.1325 1.1325 0 0 1 1.2743 0.92732z" fill="#305ff0" style="paint-order:markers fill stroke"/>
   <path d="m-341.21-60.921-2.9861-0.45178" fill="none" stroke="#305ff0" stroke-width=".55558"/>
   <path transform="matrix(.84494 -.53487 -.53487 -.84494 0 0)" d="m-260.76 231.79a1.1325 1.1325 0 0 1-1.0444 1.1802 1.1325 1.1325 0 0 1-1.2128-1.0064 1.1325 1.1325 0 0 1 0.96734-1.2442 1.1325 1.1325 0 0 1 1.2743 0.92732z" fill="#305ff0" style="paint-order:markers fill stroke"/>
   <path d="m-344.87-55.202-1.6153-2.5517" fill="none" stroke="#305ff0" stroke-width=".55558"/>
   <path transform="matrix(-.95458 .29796 .29796 .95458 0 0)" d="m315.96-170.55a1.1325 1.1325 0 0 1-1.0444 1.1802 1.1325 1.1325 0 0 1-1.2128-1.0064 1.1325 1.1325 0 0 1 0.96734-1.2442 1.1325 1.1325 0 0 1 1.2743 0.92732z" fill="#305ff0" style="paint-order:markers fill stroke"/>
   <path d="m-351.56-69.651 0.89984 2.8829" fill="none" stroke="#305ff0" stroke-width=".55558"/>
   <path transform="matrix(-.13197 .99125 .99125 .13197 0 0)" d="m-14.106-361.78a1.1325 1.1325 0 0 1-1.0444 1.1802 1.1325 1.1325 0 0 1-1.2128-1.0064 1.1325 1.1325 0 0 1 0.96734-1.2442 1.1325 1.1325 0 0 1 1.2743 0.92732z" fill="#305ff0" style="paint-order:markers fill stroke"/>
   <path d="m-357.29-62.924 2.9936 0.39856" fill="none" stroke="#305ff0" stroke-width=".55558"/>
  </g>
 </g>
</svg>
